<svg xmlns="http://www.w3.org/2000/svg" viewBox="0 0 123.45 32.39"><defs><style>.cls-1{fill:#222;}.cls-2{fill:#001dff;}.cls-3{fill:#d14265;}.cls-4{fill:#9260dc;}.cls-5{fill:#252251;}.cls-6{fill:#94e4cb;}</style></defs><g id="Layer_2" data-name="Layer 2"><g id="Layer_1-2" data-name="Layer 1"><path class="cls-1" d="M48.43,26a1.5,1.5,0,0,1-1.65,1.51H44.35V22h2.36a1.39,1.39,0,0,1,1.54,1.38,1.24,1.24,0,0,1-.79,1.23v0A1.34,1.34,0,0,1,48.43,26Zm-2-3.21H45.32v1.53h1.14a.77.77,0,1,0,0-1.53Zm1,3.1a.8.8,0,0,0-.9-.84H45.32v1.67h1.27A.77.77,0,0,0,47.45,25.91Z"/><path class="cls-1" d="M52,25.37v2.16H51V25.37L49.08,22h1.06l1.37,2.47L52.88,22h1Z"/><path class="cls-1" d="M60.61,25.52h1a2.2,2.2,0,0,1-2.44,2.06,2.54,2.54,0,0,1-2.54-2.8A2.56,2.56,0,0,1,59.14,22,2.2,2.2,0,0,1,61.58,24h-1a1.32,1.32,0,0,0-1.44-1.21c-.89,0-1.58.74-1.58,2s.68,1.94,1.58,1.94A1.3,1.3,0,0,0,60.61,25.52Z"/><path class="cls-1" d="M62.6,24.79a2.73,2.73,0,1,1,5.45,0,2.65,2.65,0,0,1-2.73,2.82A2.62,2.62,0,0,1,62.6,24.79Zm4.45,0a1.74,1.74,0,1,0-3.45,0,1.74,1.74,0,1,0,3.45,0Z"/><path class="cls-1" d="M74.2,24.78a2.53,2.53,0,0,1-2.66,2.75h-2.1V22h2.1A2.53,2.53,0,0,1,74.2,24.78Zm-1,0c0-1.26-.69-1.93-1.67-1.93H70.42V26.7h1.12C72.52,26.71,73.21,26,73.21,24.78Z"/><path class="cls-1" d="M79.43,26.69v.84H75.6V22h3.78v.84h-2.8V24.3H79.1v.81H76.58v1.58Z"/><path class="cls-1" d="M84.44,25.52h1A2.19,2.19,0,0,1,83,27.58a2.54,2.54,0,0,1-2.54-2.8A2.56,2.56,0,0,1,83,22,2.2,2.2,0,0,1,85.41,24h-1A1.32,1.32,0,0,0,83,22.83c-.89,0-1.58.74-1.58,2s.68,1.94,1.58,1.94A1.3,1.3,0,0,0,84.44,25.52Z"/><path class="cls-1" d="M86.44,24.79a2.72,2.72,0,1,1,5.44,0,2.64,2.64,0,0,1-2.72,2.82A2.61,2.61,0,0,1,86.44,24.79Zm4.44,0a1.74,1.74,0,1,0-3.45,0,1.74,1.74,0,1,0,3.45,0Z"/><path class="cls-1" d="M93,24.79A2.65,2.65,0,0,1,95.68,22a2.62,2.62,0,0,1,2.72,2.79,2.73,2.73,0,1,1-5.45,0Zm4.45,0a1.74,1.74,0,1,0-3.45,0,1.74,1.74,0,1,0,3.45,0Z"/><path class="cls-1" d="M103.54,26.67v.86H99.8V22h1v4.65Z"/><path class="cls-1" d="M46.69,14.4c.71,0,1.08-.42,1.08-1.39V5.84h2.91v7c0,2.45-1.33,4-4,4-2.52,0-3.88-1.39-3.88-3.88H45.6C45.62,14,46,14.4,46.69,14.4Z"/><path class="cls-1" d="M53,11.32a5.34,5.34,0,0,1,5.63-5.63,5.34,5.34,0,0,1,5.63,5.63A5.34,5.34,0,0,1,58.59,17,5.34,5.34,0,0,1,53,11.32Zm8.31,0c0-2-1.19-3.09-2.68-3.09s-2.68,1.12-2.68,3.09,1.19,3.11,2.68,3.11S61.27,13.29,61.27,11.32Z"/><path class="cls-1" d="M76.19,5.84v6.52c0,2.86-1.85,4.59-4.85,4.59s-4.87-1.73-4.87-4.59V5.84H69.4v6.52c0,1.35.67,2.07,1.94,2.07s1.93-.72,1.93-2.07V5.84Z"/><path class="cls-1" d="M88.65,16.73a4.58,4.58,0,0,1-1.37.19,2.85,2.85,0,0,1-3-1.78l-1-2H81.9v3.69H79v-11h4.68C86.48,5.84,88,7.17,88,9.49a3.36,3.36,0,0,1-1.79,3.08L87,14.05a1,1,0,0,0,.92.61,2,2,0,0,0,.62-.08ZM81.9,10.92h1.76a1.25,1.25,0,0,0,1.41-1.36,1.27,1.27,0,0,0-1.41-1.38H81.9Z"/><path class="cls-1" d="M100.69,5.84v11H98.05l-4.38-6.7v6.7H90.85v-11h2.64l4.38,6.7V5.84Z"/><path class="cls-1" d="M111.71,14.47v2.37h-8.08v-11h8V8.21h-5.08v2h4.38v2.29h-4.38v2Z"/><path class="cls-1" d="M119.71,12.85v4H116.8v-4l-3.76-7h3.07l2.15,4.36,2.13-4.36h3.06Z"/><path class="cls-2" d="M26.57,24.58s0,.09,0,.13a.23.23,0,0,1,.07-.07Z"/><path class="cls-2" d="M25.15,18.29a7.84,7.84,0,0,0-1-1.19c.26.34.53.67.78,1Z"/><path class="cls-2" d="M9.45,19.59a9.91,9.91,0,0,1,2.49,6.32,6.86,6.86,0,0,0,3.88-2.64,2.73,2.73,0,0,1-.57-.41L9.49,17.12A6.42,6.42,0,0,1,9.45,19.59Z"/><path class="cls-2" d="M2.9,10.61c1,.68,1.94,1.37,3,2.08l.3.22a5.66,5.66,0,0,1-.2-.58A7.84,7.84,0,0,1,5.8,8.89c-.24-.13-.49-.28-.74-.44Q4,9.52,2.9,10.61Z"/><path class="cls-2" d="M16.73,8.89c.16.18.33.35.49.52l.71.72c-.14-.71-.26-1.42-.35-2.14A6,6,0,0,0,16.73,8.89Z"/><path class="cls-2" d="M29.06,22.19l.7-.69A37.66,37.66,0,0,1,24.38,12,22.75,22.75,0,0,1,23,6.29a7.06,7.06,0,0,0-2.59.19c0,.3,0,.6,0,.9a17.45,17.45,0,0,0,.36,3.3,15.59,15.59,0,0,0,1.71,4.06l2.2,2.2a6.45,6.45,0,0,1,1.64,2.68l1.23,1.18C28.11,21.25,28.59,21.71,29.06,22.19Z"/><path class="cls-2" d="M20.12,7.4c0-.27,0-.55-.05-.82A7.12,7.12,0,0,0,17.92,7.7c.13,1,.3,2,.51,2.93l3.22,3.21a14.64,14.64,0,0,1-1.15-3.08A16.64,16.64,0,0,1,20.12,7.4Z"/><path class="cls-2" d="M32.32,15.38c-.59-1.13-1.09-2.31-1.53-3.36-.17-.21-.36-.42-.56-.63-1-1-2-2-3-3,.87,3.44,2.07,7.54,4.46,10.68A6.11,6.11,0,0,0,32.32,15.38Z"/><path class="cls-2" d="M28.81,22.44c-.47-.47-.94-.92-1.42-1.37l-.78-.75h0a9.48,9.48,0,0,1,0,3.79l.22.26C27.53,23.74,28.17,23.09,28.81,22.44Z"/><path class="cls-2" d="M30,21.24s.11-.1.16-.16a8.35,8.35,0,0,0,1.31-1.67c-2.62-3.38-3.86-7.87-4.75-11.5A6.4,6.4,0,0,0,23.4,6.34a22.23,22.23,0,0,0,1.32,5.55A37.17,37.17,0,0,0,30,21.24Z"/><path class="cls-2" d="M23.36,5.82a10.37,10.37,0,0,1,1.52.34L25,6,23.3,4.41C23.3,4.88,23.33,5.36,23.36,5.82Z"/><path class="cls-2" d="M9.67,9.39c-.83.58-2,.42-3.38-.25a7.32,7.32,0,0,0,.82,4.5A8.11,8.11,0,0,1,8.94,15.7l.08.06,8-8c.17-.17.35-.31.53-.46-.18-1.56-.29-3.14-.38-4.7l-.06-.91a11.26,11.26,0,0,1,0-1.64,6.18,6.18,0,0,0-5.4,1.75L11,2.53C12,5,12.39,7.47,9.67,9.39Z"/><path class="cls-2" d="M20.33,5.29c0,.21,0,.42.06.63h0A7.75,7.75,0,0,1,23,5.78c0-.56-.06-1.13-.05-1.69-1-.91-1.94-1.89-3-2.7a25.34,25.34,0,0,0,.27,2.92C20.25,4.65,20.3,5,20.33,5.29Z"/><path class="cls-2" d="M18.9,25.9a15.54,15.54,0,0,1,2.63,3.85c1.11-1.06,2.19-2.16,3.23-3.27a5.25,5.25,0,0,0,1-1.69,6,6,0,0,0,.25-.79c-.85-1-1.74-1.92-2.62-2.84l-.34-.36a17.83,17.83,0,0,1-1.74-2.22c-1.94,1.93-3.89,3.86-5.8,5.83a7.15,7.15,0,0,1-3.61,2.09c0,.12,0,.24,0,.35C14.91,25.58,17.8,25.05,18.9,25.9Z"/><path class="cls-2" d="M17.44,1.72l.06.91c.09,1.47.19,3,.35,4.43A7,7,0,0,1,20,6c0-.23,0-.46,0-.69s-.09-.66-.13-1a26.55,26.55,0,0,1-.28-3.23,6.23,6.23,0,0,0-2.14-1A13.7,13.7,0,0,0,17.44,1.72Z"/><path class="cls-2" d="M23.7,20.92c.83.86,1.66,1.75,2.47,2.66a6.94,6.94,0,0,0-.39-4.08,15.5,15.5,0,0,1-1.1-1.19c-.43-.51-.88-1.08-1.33-1.69L23,17l-1.35,1.35a15.09,15.09,0,0,0,1.75,2.24Z"/><path class="cls-3" d="M2.9,10.61c-.41.41-.83.83-1.23,1.25a6.39,6.39,0,0,0-1.06,7c2.46-.93,5.71-1.39,7.92,0a5.33,5.33,0,0,1,.92.74,6.42,6.42,0,0,0,0-2.47c-.59-.6-1.18-1.19-1.78-1.78a6.65,6.65,0,0,1-1.54-2.43l-.3-.22C4.84,12,3.86,11.29,2.9,10.61Z"/><path class="cls-3" d="M7.11,13.64A6,6,0,0,0,8.94,15.7,8.11,8.11,0,0,0,7.11,13.64Z"/><path class="cls-3" d="M6.29,9.14c1.37.67,2.55.83,3.38.25C12.39,7.47,12,5,11,2.53c-1,1-2.08,2-3.08,3.07A6.23,6.23,0,0,0,6.29,9.14Z"/><path class="cls-3" d="M5.06,8.45c.25.16.5.31.74.44a8.64,8.64,0,0,1,.33-1.38,1.46,1.46,0,0,0-.24.11C5.62,7.9,5.33,8.17,5.06,8.45Z"/><path class="cls-4" d="M20.77,30.49c.26-.24.5-.49.76-.74A15.54,15.54,0,0,0,18.9,25.9c-1.1-.85-4-.32-7,1a6.41,6.41,0,0,1-.54,2.26l0,.07a5,5,0,0,1,1,2A6.46,6.46,0,0,0,20.77,30.49Z"/><path class="cls-4" d="M11.39,29.11c0,.09-.08.19-.13.28a5.09,5.09,0,0,1-.3.5l.44.44a7.93,7.93,0,0,0,1.07.88,5,5,0,0,0-1-2Z"/><path class="cls-5" d="M17.58,8c.09.72.21,1.43.35,2.14.17.16.34.33.5.5-.21-1-.38-1.94-.51-2.93A3.07,3.07,0,0,0,17.58,8Z"/><path class="cls-5" d="M17.06,1.73l.06.91c.09,1.56.2,3.14.38,4.7a3.07,3.07,0,0,1,.35-.28c-.16-1.48-.26-3-.35-4.43l-.06-.91a13.7,13.7,0,0,1,0-1.57c-.12,0-.25,0-.37-.06A11.26,11.26,0,0,0,17.06,1.73Z"/><path class="cls-5" d="M23.43,21.16c.88.92,1.77,1.87,2.62,2.84,0-.14.09-.28.12-.42-.81-.91-1.64-1.8-2.47-2.66l-.33-.36a15.09,15.09,0,0,1-1.75-2.24l-.27.26a17.83,17.83,0,0,0,1.74,2.22Z"/><path class="cls-5" d="M26.87,24.38l-.22-.26c0,.15,0,.31-.08.46l.05.06Z"/><path class="cls-5" d="M30.79,12c.44,1.05.94,2.23,1.53,3.36A6.9,6.9,0,0,0,30.79,12Z"/><path class="cls-5" d="M31.67,19.05c-2.39-3.14-3.59-7.24-4.46-10.68l-.32-.32-.16-.14c.89,3.63,2.13,8.12,4.75,11.5C31.55,19.29,31.61,19.17,31.67,19.05Z"/><path class="cls-5" d="M23,5.78l.36,0c0-.46-.06-.94-.06-1.41l-.23-.21L23,4.09C22.94,4.65,23,5.22,23,5.78Z"/><path class="cls-5" d="M29.76,21.5l.25-.26a37.17,37.17,0,0,1-5.29-9.35A22.23,22.23,0,0,1,23.4,6.34l-.37,0A22.75,22.75,0,0,0,24.38,12,37.66,37.66,0,0,0,29.76,21.5Z"/><path class="cls-5" d="M25.78,19.5a8.18,8.18,0,0,0-.63-1.21l-.2-.21c-.25-.31-.52-.64-.78-1a7.81,7.81,0,0,0-.67-.62l-.15.14c.45.61.9,1.18,1.33,1.69A15.5,15.5,0,0,0,25.78,19.5Z"/><path class="cls-5" d="M20,5.33c0,.23,0,.46,0,.69l.36-.1c0-.21,0-.42-.06-.63s-.08-.64-.12-1a25.34,25.34,0,0,1-.27-2.92l-.35-.27h0a26.55,26.55,0,0,0,.28,3.23C19.9,4.67,20,5,20,5.33Z"/><path class="cls-5" d="M28.81,22.44l.25-.25c-.47-.48-.95-.94-1.44-1.39l-1.23-1.18c.08.23.16.46.22.7l.78.75C27.87,21.52,28.34,22,28.81,22.44Z"/><path class="cls-5" d="M20.48,7.38c0-.3,0-.6,0-.9l-.37.1c0,.27,0,.55.05.82a16.64,16.64,0,0,0,.38,3.36,14.64,14.64,0,0,0,1.15,3.08l.9.9a15.59,15.59,0,0,1-1.71-4.06A17.45,17.45,0,0,1,20.48,7.38Z"/><path class="cls-6" d="M9.45,19.59c-.33,1.89-1,3.9.11,6.56a7.07,7.07,0,0,0,2.38-.24A9.91,9.91,0,0,0,9.45,19.59Z"/><path class="cls-6" d="M11.93,26.85c0-.11,0-.23,0-.35a7.59,7.59,0,0,1-2.14.17c.14.3.32.61.51.94C10.85,27.33,11.39,27.08,11.93,26.85Z"/><path class="cls-6" d="M9.8,26.67A10.94,10.94,0,0,1,8,26.4l-.67-.15,2,1.94c.35-.2.7-.4,1.06-.58C10.12,27.28,9.94,27,9.8,26.67Z"/><path class="cls-6" d="M9.45,19.59a5.33,5.33,0,0,0-.92-.74c-2.21-1.34-5.46-.88-7.92,0a6.27,6.27,0,0,0,.94,1.48,48.5,48.5,0,0,0,4.16,4.2,6.29,6.29,0,0,0,3.85,1.57C8.46,23.49,9.12,21.48,9.45,19.59Z"/><path class="cls-6" d="M11.39,29.11a6.41,6.41,0,0,0,.54-2.26c-.54.23-1.08.48-1.62.76A13.85,13.85,0,0,0,11.39,29.11Z"/><path class="cls-6" d="M11.39,29.11a13.85,13.85,0,0,1-1.08-1.5c-.36.18-.71.38-1.06.58L11,29.89a5.09,5.09,0,0,0,.3-.5C11.31,29.3,11.35,29.2,11.39,29.11Z"/></g></g></svg>